<?xml version="1.0" encoding="UTF-8"?>
<svg width="83px" height="83px" viewBox="0 0 83 83" version="1.1" xmlns="http://www.w3.org/2000/svg" xmlns:xlink="http://www.w3.org/1999/xlink">
    <!-- Generator: Sketch 54.1 (76490) - https://sketchapp.com -->
    <title>Group</title>
    <desc>Created with Sketch.</desc>
    <g id="Page-1" stroke="none" stroke-width="1" fill="none" fill-rule="evenodd">
        <g id="STIBITS-WEBSITE" transform="translate(-315.000000, -2315.000000)">
            <g id="HOME" transform="translate(-6.000000, 0.000000)">
                <g id="Cards" transform="translate(216.000000, 2279.000000)">
                    <g id="card">
                        <g id="Group" transform="translate(105.000000, 36.000000)">
                            <circle id="Oval" fill="#9F0C20" cx="41.5" cy="41.5" r="41.5"></circle>
                            <path d="M25.8341119,57.0236214 C25.8341119,58.3686942 26.9404494,59.4692083 28.2926398,59.4692083 L30.7511678,59.4692083 L30.7511678,68.0287625 C30.7511678,70.0585996 32.3983815,71.6971429 34.4389597,71.6971429 C36.4795379,71.6971429 38.1267517,70.0585996 38.1267517,68.0287625 L38.1267517,59.4692083 L43.0438076,59.4692083 L43.0438076,68.0287625 C43.0438076,70.0585996 44.6910213,71.6971429 46.7315995,71.6971429 C48.7721778,71.6971429 50.4193915,70.0585996 50.4193915,68.0287625 L50.4193915,59.4692083 L52.8779195,59.4692083 C54.2301098,59.4692083 55.3364474,58.3686942 55.3364474,57.0236214 L55.3364474,32.5677523 L25.8341119,32.5677523 L25.8341119,57.0236214 L25.8341119,57.0236214 Z M19.6877919,32.5677523 C17.6472137,32.5677523 16,34.2062955 16,36.2361326 L16,53.355241 C16,55.3850782 17.6472137,57.0236214 19.6877919,57.0236214 C21.7283702,57.0236214 23.3755839,55.3850782 23.3755839,53.355241 L23.3755839,36.2361326 C23.3755839,34.2062955 21.7283702,32.5677523 19.6877919,32.5677523 L19.6877919,32.5677523 Z M61.4827673,32.5677523 C59.4421891,32.5677523 57.7949754,34.2062955 57.7949754,36.2361326 L57.7949754,53.355241 C57.7949754,55.3850782 59.4421891,57.0236214 61.4827673,57.0236214 C63.5233455,57.0236214 65.1705593,55.3850782 65.1705593,53.355241 L65.1705593,36.2361326 C65.1705593,34.2062955 63.5233455,32.5677523 61.4827673,32.5677523 L61.4827673,32.5677523 Z M49.2638833,18.2855247 L52.4722623,15.0940338 C52.9516753,14.6171443 52.9516753,13.8467845 52.4722623,13.369895 C51.9928494,12.8930056 51.2184131,12.8930056 50.7390001,13.369895 L47.1003787,16.9771357 C45.1335564,16.0111289 42.9331738,15.4486439 40.5852796,15.4486439 C38.2250928,15.4486439 36.0124176,16.0111289 34.0333026,16.9893636 L30.3823886,13.3576671 C29.9029756,12.8807776 29.1285393,12.8807776 28.6491264,13.3576671 C28.1697134,13.8345565 28.1697134,14.6049164 28.6491264,15.0818059 L31.869798,18.2855247 C28.218884,20.9634424 25.8341119,25.2676753 25.8341119,30.1221654 L55.3364474,30.1221654 C55.3364474,25.2554474 52.9393827,20.9512144 49.2638833,18.2855247 L49.2638833,18.2855247 Z M46.7315995,25.2279346 C47.4105033,25.2279346 47.9608635,24.6804713 47.9608635,24.0051411 C47.9608635,23.3298109 47.4105033,22.7823476 46.7315995,22.7823476 C46.0526958,22.7823476 45.5023356,23.3298109 45.5023356,24.0051411 C45.5023356,24.6804713 46.0526958,25.2279346 46.7315995,25.2279346 Z M34.4389597,25.2279346 C35.1178635,25.2279346 35.6682237,24.6804713 35.6682237,24.0051411 C35.6682237,23.3298109 35.1178635,22.7823476 34.4389597,22.7823476 C33.760056,22.7823476 33.2096957,23.3298109 33.2096957,24.0051411 C33.2096957,24.6804713 33.760056,25.2279346 34.4389597,25.2279346 Z" id="Shape" fill="#FFFFFF"></path>
                        </g>
                    </g>
                </g>
            </g>
        </g>
    </g>
</svg>