<?xml version="1.0" encoding="UTF-8"?>
<svg width="41px" height="66px" viewBox="0 0 41 66" version="1.1" xmlns="http://www.w3.org/2000/svg" xmlns:xlink="http://www.w3.org/1999/xlink">
    <!-- Generator: Sketch 54.1 (76490) - https://sketchapp.com -->
    <title>Group 7</title>
    <desc>Created with Sketch.</desc>
    <defs>
        <polygon id="path-1" points="0 0.199142857 40.9967581 0.199142857 40.9967581 33.6141486 0 33.6141486"></polygon>
        <polygon id="path-3" points="0 0 40.9970442 0 40.9970442 33.4142286 0 33.4142286"></polygon>
    </defs>
    <g id="Page-1" stroke="none" stroke-width="1" fill="none" fill-rule="evenodd">
        <g id="STIBITS-WEBSITE" transform="translate(-1170.000000, -1777.000000)">
            <g id="HOW-TO" transform="translate(127.000000, 1777.000000)">
                <g id="Group-17" transform="translate(950.000000, 0.000000)">
                    <g id="Group-7" transform="translate(93.000000, 0.000000)">
                        <g id="Group-3" opacity="0.17905971">
                            <mask id="mask-2" fill="white">
                                <use xlink:href="#path-1"></use>
                            </mask>
                            <g id="Clip-2"></g>
                            <path d="M40.9971395,16.7076 C40.9971395,7.51885714 33.618093,0 24.598093,0 L0,0 L0,33.4152 L24.598093,33.4152 C33.618093,33.4152 40.9971395,25.8963429 40.9971395,16.7076" id="Fill-1" fill="#16162B" mask="url(#mask-2)"></path>
                        </g>
                        <g id="Group-6" transform="translate(0.000000, 33.000000)">
                            <mask id="mask-4" fill="white">
                                <use xlink:href="#path-3"></use>
                            </mask>
                            <g id="Clip-5"></g>
                            <path d="M24.5979977,-0.414714286 L-9.53488372e-05,-0.414714286 L-9.53488372e-05,32.9995143 L24.5979977,32.9995143 C33.6170442,32.9995143 40.9970442,25.4816286 40.9970442,16.2928857 C40.9970442,7.10317143 33.6170442,-0.414714286 24.5979977,-0.414714286" id="Fill-4" fill="#9F0C20" mask="url(#mask-4)"></path>
                        </g>
                    </g>
                </g>
            </g>
        </g>
    </g>
</svg>