<?xml version="1.0" encoding="UTF-8"?>
<svg width="83px" height="83px" viewBox="0 0 83 83" version="1.1" xmlns="http://www.w3.org/2000/svg" xmlns:xlink="http://www.w3.org/1999/xlink">
    <!-- Generator: Sketch 54.1 (76490) - https://sketchapp.com -->
    <title>Group</title>
    <desc>Created with Sketch.</desc>
    <g id="Page-1" stroke="none" stroke-width="1" fill="none" fill-rule="evenodd">
        <g id="STIBITS-WEBSITE" transform="translate(-681.000000, -2315.000000)">
            <g id="HOME" transform="translate(-6.000000, 0.000000)">
                <g id="Cards" transform="translate(216.000000, 2279.000000)">
                    <g id="card-2" transform="translate(365.000000, 0.000000)">
                        <g id="Group" transform="translate(106.000000, 36.000000)">
                            <circle id="Oval" fill="#9F0C20" cx="41.5" cy="41.5" r="41.5"></circle>
                            <path d="M49.6526476,18.5751386 C46.4157788,23.6622133 39.8951654,23.5049481 39.8951654,23.5049481 C39.8951654,23.5049481 38.8056833,18.2826456 42.9534147,13.6413228 C47.101146,9 52.1390171,9 52.1390171,9 C52.1390171,9 52.8895164,13.4880639 49.6526476,18.5751386 Z M57.4525868,23.6085285 C61.4921927,25.1885791 63.9245483,28.6116109 63.9245483,28.6116109 C63.9245483,28.6116109 57.1789342,31.8881389 57.4525885,40.0215312 C57.7262428,48.1549236 65.7674419,51.6209431 65.7674419,51.6209431 C65.7674419,51.6209431 62.68509,58.2241528 59.6228345,62.0747325 C57.9587507,64.1672056 54.4000029,67.0158037 51.8208829,67.0158037 C50.1485281,67.0158037 48.5826321,66.0884656 46.8130697,65.4215214 C45.2349931,64.8267478 44.7617536,64.4320466 42.5238285,64.3176699 C40.7225145,64.2256077 38.242642,64.9284857 36.9094262,65.6230012 C35.4775674,66.3689031 32.6261937,67.655792 29.8017788,66.5741585 C26.5890279,65.3438084 23.6981233,62.0320609 21.3449834,58.0516712 C16.9231355,50.5720148 16.0916714,44.3836749 16.008739,40.6198442 C15.9785077,39.2478175 15.8687335,34.5501314 18.9187821,29.6793439 C21.9688306,24.8085564 26.2952372,23.6085284 26.2952372,23.6085284 C26.2952372,23.6085284 30.3056883,21.898528 35.5959759,23.6085285 C38.6342487,24.5906014 40.1857079,25.5841117 42.16204,25.4070798 C44.1383722,25.230048 45.1045594,24.4154177 47.8312079,23.6085285 C50.485698,22.822993 54.5936872,22.490299 57.4525868,23.6085285 Z" id="Apple-logo" fill="#FFFFFF"></path>
                        </g>
                    </g>
                </g>
            </g>
        </g>
    </g>
</svg>