<?xml version="1.0" encoding="UTF-8"?>
<svg width="83px" height="83px" viewBox="0 0 83 83" version="1.1" xmlns="http://www.w3.org/2000/svg" xmlns:xlink="http://www.w3.org/1999/xlink">
    <!-- Generator: Sketch 54.1 (76490) - https://sketchapp.com -->
    <title>api</title>
    <desc>Created with Sketch.</desc>
    <g id="Page-1" stroke="none" stroke-width="1" fill="none" fill-rule="evenodd">
        <g id="STIBITS-WEBSITE" transform="translate(-1046.000000, -2315.000000)">
            <g id="HOME" transform="translate(-6.000000, 0.000000)">
                <g id="Cards" transform="translate(216.000000, 2279.000000)">
                    <g id="card-3" transform="translate(730.000000, 0.000000)">
                        <g id="api" transform="translate(106.000000, 36.000000)">
                            <g>
                                <circle id="Oval" fill="#9F0C20" cx="41.5" cy="41.5" r="41.5"></circle>
                                <g id="code" transform="translate(22.000000, 26.000000)" fill="#FFFFFF" fill-rule="nonzero">
                                    <path d="M24.4816837,0.722306241 L23.1147494,0.350844301 C22.9388065,0.2926838 22.7654886,0.310973747 22.5969572,0.405561089 C22.4278853,0.500224958 22.3137039,0.642335551 22.2550306,0.831663289 L14.0335066,29.0385881 C13.9748332,29.2279924 13.9932072,29.4066064 14.0887058,29.5738943 C14.1842044,29.7414884 14.3272593,29.8543657 14.5185652,29.9125262 L15.8851135,30.2841412 C16.0614423,30.3427609 16.2341427,30.3243944 16.4031373,30.229654 C16.5722092,30.134531 16.686159,29.9928795 16.7447551,29.8038579 L24.9665107,1.59647388 C25.0251069,1.40714614 25.0068872,1.22853218 24.9112343,1.06086158 C24.8156585,0.893267504 24.672758,0.780390215 24.4816837,0.722306241 Z" id="Path"></path>
                                    <path d="M13,6.1475615 C13,5.95654048 12.9254425,5.78737029 12.7765621,5.6405142 L11.6596075,4.53824419 C11.5107272,4.39131088 11.3393935,4.3176512 11.1458412,4.3176512 C10.952289,4.3176512 10.7808771,4.39138809 10.632075,4.53824419 L0.223437867,14.8107583 C0.0743228198,14.9576916 0,15.1267846 0,15.3178056 C0,15.5088266 0.0745575235,15.6779196 0.223437867,15.8247757 L10.6319967,26.0972899 C10.7807988,26.2444548 10.9518978,26.3176512 11.145763,26.3176512 C11.3396282,26.3176512 11.5107272,26.2442232 11.6595293,26.0972899 L12.7764839,24.9956375 C12.9253642,24.8487814 12.9999218,24.6796112 12.9999218,24.4883586 C12.9999218,24.2975692 12.9253642,24.1284762 12.7764839,23.9816201 L3.998333,15.3178056 L12.7765621,6.65460879 C12.9256772,6.5077527 13,6.33858251 13,6.1475615 Z" id="Path"></path>
                                    <path d="M39.7767038,14.8106479 L29.3671429,4.53824186 C29.218331,4.39138732 29.0469077,4.3176512 28.8536556,4.3176512 C28.6597776,4.3176512 28.4889802,4.39138732 28.3396206,4.53824186 L27.2230615,5.64042306 C27.0742495,5.78735482 27,5.95621438 27,6.14746502 C27,6.33871566 27.0741713,6.50765243 27.2230615,6.65450698 L36.0020282,15.3178442 L27.2230615,23.9816447 C27.0742495,24.1284993 27,24.2976677 27,24.4883779 C27,24.6797057 27.0741713,24.8487969 27.2230615,24.9956514 L28.3396206,26.0972922 C28.4889802,26.2444556 28.6598558,26.3176512 28.8536556,26.3176512 C29.046986,26.3176512 29.218331,26.2442239 29.3671429,26.0972922 L39.7767038,15.8249634 C39.925594,15.6781089 40,15.5087088 40,15.3176898 C40,15.1265936 39.925594,14.9575024 39.7767038,14.8106479 Z" id="Path"></path>
                                </g>
                            </g>
                        </g>
                    </g>
                </g>
            </g>
        </g>
    </g>
</svg>