<?xml version="1.0" encoding="utf-8"?>
<!-- Generator: Adobe Illustrator 23.0.3, SVG Export Plug-In . SVG Version: 6.00 Build 0)  -->
<svg version="1.1" id="Layer_1" xmlns="http://www.w3.org/2000/svg" xmlns:xlink="http://www.w3.org/1999/xlink" x="0px" y="0px"
	 viewBox="0 0 1140 347" style="enable-background:new 0 0 1140 347;" xml:space="preserve">
<style type="text/css">
	.st0{fill:#FCFCFC;}
</style>
<g>
	<g>
		<path class="st0" d="M814.05,206.25v7.7h12.8v2.5h-12.8v7.8h14.3v2.5h-16.9v-23h16.9v2.5H814.05L814.05,206.25z"/>
		<path class="st0" d="M847.15,212.15v-2.8h2.6v17.4h-2.6v-2.8c-1.3,1.9-3.3,3-6.2,3c-5.1,0-8.4-4-8.4-9s3.3-9,8.4-9
			C843.85,209.05,845.85,210.35,847.15,212.15z M847.35,218.05c0-3.6-2.2-6.6-6-6.6c-3.9,0-6.2,3-6.2,6.6s2.3,6.6,6.2,6.6
			C845.15,224.65,847.35,221.65,847.35,218.05z"/>
		<path class="st0" d="M869.25,214.05h-2.6c-0.2-1.5-1.3-2.7-4.2-2.7c-2.7,0-4.1,0.8-4.1,2.5c0,4.2,11.6,1.4,11.6,8
			c0,3.4-2.8,5.2-7.1,5.2c-4.8,0-7.4-2.7-7.5-5.7h2.7c0.2,1.8,1.5,3.5,4.9,3.5c1.4,0,4.5-0.4,4.5-2.8c0-4.3-11.6-1.6-11.6-8
			c0-3.1,2.3-5,6.8-5C867.05,209.05,868.95,211.45,869.25,214.05z"/>
		<path class="st0" d="M879.95,233.65h-2.8l3.2-7.1l-7.1-17.1h2.9l5.6,14.3l5.7-14.3h2.9L879.95,233.65z"/>
		<path class="st0" d="M915.05,212.85l-4.3,13.9h-3l-5.5-17.4h2.8l4.2,14.2l4.4-14.2h2.9l4.4,14.2l4.2-14.2h2.8l-5.5,17.4h-3
			L915.05,212.85z"/>
		<path class="st0" d="M945.95,212.15v-2.8h2.6v17.4h-2.6v-2.8c-1.3,1.9-3.3,3-6.2,3c-5.1,0-8.4-4-8.4-9s3.3-9,8.4-9
			C942.65,209.05,944.75,210.35,945.95,212.15z M946.15,218.05c0-3.6-2.2-6.6-6-6.6c-3.9,0-6.2,3-6.2,6.6s2.3,6.6,6.2,6.6
			C943.95,224.65,946.15,221.65,946.15,218.05z"/>
		<path class="st0" d="M959.85,233.65h-2.8l3.2-7.1l-7.1-17.1h2.9l5.6,14.3l5.7-14.3h2.9L959.85,233.65z"/>
		<path class="st0" d="M986.05,226.75v-15.1h-3.5v-2.3h3.5v-6.2h2.6v6.2h4v2.3h-4v15.1H986.05z"/>
		<path class="st0" d="M1013.45,218.05c0,5-3.3,9-8.6,9s-8.6-4-8.6-9s3.3-9,8.6-9S1013.45,213.05,1013.45,218.05z M1010.85,218.05
			c0-3.6-2.2-6.6-6-6.6s-6,3-6,6.6s2.2,6.6,6,6.6S1010.85,221.65,1010.85,218.05z"/>
		<path class="st0" d="M1042.75,226.75h-2.6v-10.4c0-2.9-1.9-4.9-4.3-4.9c-2.6,0-4.7,1.8-4.7,4.9v10.4h-2.6v-17.4h2.6v2.6
			c0.8-1.4,2.5-2.9,5.3-2.9c2.3,0,4.4,1.3,5.5,3.5c0.7-1.2,2.5-3.5,6-3.5c3.3,0,6.4,2.8,6.4,7.2v10.5h-2.6v-10.4
			c0-2.9-1.9-4.9-4.3-4.9c-2.6,0-4.7,1.8-4.7,4.9L1042.75,226.75L1042.75,226.75z"/>
		<path class="st0" d="M1077.05,218.05c0,5-3.3,9-8.6,9c-5.3,0-8.6-4-8.6-9s3.3-9,8.6-9S1077.05,213.05,1077.05,218.05z
			 M1074.45,218.05c0-3.6-2.2-6.6-6-6.6s-6,3-6,6.6s2.2,6.6,6,6.6S1074.45,221.65,1074.45,218.05z"/>
		<path class="st0" d="M1096.95,209.35l-6.8,17.4h-3l-6.8-17.4h2.9l5.5,14.6l5.5-14.6H1096.95L1096.95,209.35z"/>
		<path class="st0" d="M1114.05,221.75h2.9c-1.2,3.1-3.8,5.3-7.9,5.3c-5.3,0-8.8-4-8.8-9s3.3-9,8.6-9s8.6,4,8.6,9v1h-14.6
			c0.4,3.1,2.6,5.6,6.2,5.6C1111.45,224.65,1113.15,223.45,1114.05,221.75z M1102.95,216.65h11.8c-0.5-3-2.6-5.2-5.9-5.2
			C1105.45,211.45,1103.45,213.65,1102.95,216.65z"/>
		<path class="st0" d="M831.75,259.85c0,7.2-5.1,11.5-10.6,11.5h-9.7v-23h9.7C826.65,248.35,831.75,252.65,831.75,259.85z
			 M829.15,259.85c0-4.9-3.2-9-8.1-9h-7v18.1h7C825.95,268.85,829.15,264.75,829.15,259.85z"/>
		<path class="st0" d="M840.15,247.65v3.4h-2.8v-3.4H840.15z M837.45,253.95h2.6v17.4h-2.6V253.95z"/>
		<path class="st0" d="M862.85,253.95v16.9c0,5-3,7.7-8.2,7.7c-4.4,0-7.1-2-8.1-5.1h2.9c0.7,1.7,2.5,2.7,5.1,2.7
			c4,0,5.7-1.9,5.7-5.5v-2.4c-1.3,1.9-3.3,3.1-6.2,3.1c-5.1,0-8.4-3.9-8.4-8.8s3.3-8.8,8.4-8.8c2.9,0,4.9,1.2,6.2,3v-2.8
			L862.85,253.95L862.85,253.95z M860.45,262.55c0-3.6-2.2-6.5-6-6.5c-3.9,0-6.2,2.9-6.2,6.5s2.3,6.5,6.2,6.5
			C858.25,268.95,860.45,266.05,860.45,262.55z"/>
		<path class="st0" d="M872.25,247.65v3.4h-2.8v-3.4H872.25z M869.55,253.95h2.6v17.4h-2.6V253.95z"/>
		<path class="st0" d="M880.65,271.35v-15.1h-3.5v-2.3h3.5v-6.2h2.6v6.2h4v2.3h-4v15.1H880.65z"/>
		<path class="st0" d="M905.45,256.75v-2.8h2.6v17.4h-2.6v-2.8c-1.3,1.9-3.3,3-6.2,3c-5.1,0-8.4-4-8.4-9s3.3-9,8.4-9
			C902.15,253.65,904.15,254.95,905.45,256.75z M905.55,262.65c0-3.6-2.2-6.6-6-6.6c-3.9,0-6.2,3-6.2,6.6s2.3,6.6,6.2,6.6
			S905.55,266.25,905.55,262.65z"/>
		<path class="st0" d="M917.25,271.35h-2.6v-24.3h2.6V271.35z"/>
		<path class="st0" d="M947.65,271.35h-2.6v-10.4c0-2.9-1.9-4.9-4.3-4.9c-2.6,0-4.7,1.8-4.7,4.9v10.4h-2.6v-17.4h2.6v2.6
			c0.8-1.4,2.5-2.9,5.3-2.9c2.3,0,4.4,1.3,5.5,3.5c0.7-1.2,2.5-3.5,6-3.5c3.3,0,6.4,2.8,6.4,7.2v10.5h-2.6v-10.4
			c0-2.9-1.9-4.9-4.3-4.9c-2.6,0-4.7,1.8-4.7,4.9V271.35L947.65,271.35z"/>
		<path class="st0" d="M981.95,262.65c0,5-3.3,9-8.6,9c-5.3,0-8.6-4-8.6-9s3.3-9,8.6-9S981.95,257.65,981.95,262.65z M979.35,262.65
			c0-3.6-2.2-6.6-6-6.6c-3.9,0-6,3-6,6.6s2.2,6.6,6,6.6C977.15,269.25,979.35,266.25,979.35,262.65z"/>
		<path class="st0" d="M990.15,253.95v2.7c1.3-1.7,3-3,5.8-3c3.6,0,6.9,2.6,6.9,7.5v10.1h-2.6v-10c0-3.2-2-5.2-4.9-5.2
			s-5.2,2.2-5.2,5.3v10h-2.6v-17.4H990.15z"/>
		<path class="st0" d="M1022.15,266.35h2.9c-1.2,3.1-3.8,5.3-7.9,5.3c-5.3,0-8.8-4-8.8-9s3.3-9,8.6-9c5.3,0,8.6,4,8.6,9v1h-14.6
			c0.4,3.1,2.6,5.6,6.2,5.6C1019.55,269.25,1021.25,268.05,1022.15,266.35z M1010.95,261.25h11.8c-0.5-3-2.6-5.2-5.9-5.2
			S1011.45,258.25,1010.95,261.25z"/>
		<path class="st0" d="M1035.25,278.25h-2.8l3.2-7.1l-7.1-17.1h2.9l5.6,14.3l5.7-14.3h2.9L1035.25,278.25z"/>
	</g>
	<path class="st0" d="M152.55,270.45c0,13.5-3.9,23.7-11.7,30.6c-7.8,6.8-18.7,10.3-32.6,10.3h-71.9v-24.6h76.6
		c4.3,0,7.9-1.6,10.8-4.9c2.8-3.3,4.3-7.3,4.3-12c0-4.5-1.4-8.3-4.3-11.6c-2.9-3.3-6.4-4.9-10.8-4.9h-39.4c-8.1,0-15-1.2-20.6-3.6
		s-10.1-5.6-13.6-9.6c-3.5-3.9-5.9-8.3-7.5-13.1c-1.6-4.8-2.3-9.6-2.3-14.3c0-5.7,0.8-11,2.5-15.9c1.6-4.9,4.3-9.3,7.9-13.1
		s8.2-6.8,13.8-9c5.6-2.2,12.3-3.2,20.1-3.2h69.7v24.6h-73.7c-2.2,0-4.2,0.4-6.1,1.3c-1.9,0.9-3.6,2.1-5,3.6s-2.6,3.2-3.5,5.2
		s-1.3,4.1-1.3,6.2c0,4.6,1.6,8.5,4.6,11.7c3.1,3.2,6.9,4.8,11.4,4.8h38.7c13.5,0,24.2,3.4,32,10.3c7.8,6.8,11.7,17,11.7,30.6
		L152.55,270.45L152.55,270.45z"/>
	<path class="st0" d="M225.25,311.35h-24.6v-115.4h-34.5v-24.6h91.6v24.6h-32.5V311.35z"/>
	<path class="st0" d="M273.25,171.35h24.6v140h-24.6V171.35z"/>
	<path class="st0" d="M500.95,171.35h24.6v140h-24.6V171.35z"/>
	<path class="st0" d="M600.25,311.35h-24.6v-115.4h-34.5v-24.6h91.6v24.6h-32.5V311.35z"/>
	<path class="st0" d="M769.35,270.45c0,13.5-3.9,23.7-11.7,30.6c-7.8,6.8-18.7,10.3-32.6,10.3h-71.9v-24.6h76.6
		c4.3,0,7.9-1.6,10.8-4.9s4.3-7.3,4.3-12c0-4.5-1.4-8.3-4.3-11.6c-2.9-3.3-6.4-4.9-10.8-4.9h-39.4c-8.1,0-15-1.2-20.6-3.6
		c-5.6-2.5-10.1-5.6-13.6-9.6c-3.5-3.9-5.9-8.3-7.5-13.1c-1.6-4.8-2.3-9.6-2.3-14.3c0-5.7,0.8-11,2.5-15.9c1.6-4.9,4.3-9.3,7.9-13.1
		c3.6-3.8,8.2-6.8,13.8-9s12.3-3.2,20.1-3.2h69.9v24.6h-73.7c-2.2,0-4.2,0.4-6.1,1.3c-1.9,0.9-3.6,2.1-5,3.6s-2.6,3.2-3.5,5.2
		s-1.3,4.1-1.3,6.2c0,4.6,1.6,8.5,4.6,11.7c3.1,3.2,6.9,4.8,11.4,4.8h38.6c13.5,0,24.2,3.4,32,10.3c7.8,6.8,11.7,17,11.7,30.6
		L769.35,270.45L769.35,270.45z"/>
	<g>
		<path class="st0" d="M488.85,215.75c0-0.5,0-1,0-1.5c0-0.2,0-0.3,0-0.5c0-0.3,0-0.6-0.1-1c0-0.2,0-0.4,0-0.6c0-0.3,0-0.6-0.1-0.9
			c0-0.2,0-0.5-0.1-0.7c0-0.2-0.1-0.5-0.1-0.7c-0.1-0.5-0.2-1.1-0.2-1.6c0-0.2,0-0.3-0.1-0.5c-0.1-0.3-0.1-0.7-0.2-1
			c0-0.1,0-0.2-0.1-0.3c-0.1-0.3-0.1-0.7-0.2-1.1c-3.3-13.7-12.9-25.3-26.5-30.9c-8-3.3-16.3-6-24.7-8c-6-1.4-12,2.3-13.4,8.2
			c-1.4,6,2.3,12,8.2,13.4c7.2,1.7,14.4,4.1,21.3,6.9c5,2.1,9,5.8,11.4,10.4c0.2,0.3,0.4,0.7,0.5,1.1c0,0.1,0.1,0.1,0.1,0.2
			c0.2,0.3,0.3,0.7,0.5,1.1c0,0.1,0,0.1,0.1,0.2c0.1,0.3,0.3,0.7,0.4,1.1v0.1c0.1,0.4,0.2,0.8,0.3,1.1c0,0.1,0,0.2,0.1,0.2
			c0.1,0.4,0.2,0.8,0.3,1.2c0,0,0,0.1,0,0.2c0.1,0.4,0.1,0.8,0.2,1.1c0,0.1,0,0.2,0,0.2c0,0.4,0.1,0.8,0.1,1.2c0,0.1,0,0.2,0,0.2
			c0,0.4,0,0.8,0,1.2l0.2,62.3c0,7.2-3.4,13.8-9,17.9c-0.5,0.3-0.9,0.6-1.4,0.9s-0.9,0.6-1.4,0.8s-1,0.5-1.5,0.7
			c-0.4,0.2-0.8,0.3-1.2,0.5c-2.9,1.2-6.2,2.5-9.7,3.8c-1,0.3-2,0.7-3.1,1.1c-0.5,0.2-1.1,0.3-1.6,0.5c-1.1,0.3-2.2,0.7-3.3,1
			c-0.6,0.1-1.1,0.3-1.7,0.5c-3.2,0.9-6.5,1.7-9.9,2.4c-7.6,1.5-15.7,2.6-24.1,2.5c-1.4,0-2.7,0-4-0.1c-1.3,0-2.7-0.1-4-0.2
			c-0.7,0-1.3-0.1-2-0.2c-17.6-1.7-33.2-7.2-43.8-11.9c-1.7-0.8-3.3-1.8-4.8-2.9c-0.9-0.7-1.7-1.4-2.4-2.2
			c-2.7-2.9-4.7-6.5-5.5-10.4c-0.2-0.8-0.3-1.6-0.4-2.4c-0.1-0.5-0.1-1.1-0.1-1.6c0-0.3,0-0.6,0-0.8v-20.5v-17.1v-23.8v-0.1v-10.8
			v-8.5v-4.8v-25.8v-99.5l23.4-23.4l18.9,18.9l-14.1,14.1c-4.4,4.4-4.4,11.4,0,15.7l14.1,14.1l-14.1,14.1c-4.4,4.4-4.4,11.4,0,15.7
			l22,22c4.4,4.4,11.4,4.4,15.7,0c4.4-4.4,4.4-11.4,0-15.7l-14.1-14.1l14.1-14.1c4.4-4.4,4.4-11.4,0-15.7l-14.1-14.1l14.1-14.1
			c4.4-4.4,4.4-11.4,0-15.7l-34.6-34.6c-4.4-4.4-11.4-4.4-15.7,0l-34.6,34.6c-2.1,2.1-3.3,4.9-3.3,7.8v104.1v7v23.6v45.3h0.1v23.4
			v12.3c0,1.9,0.2,3.8,0.4,5.7c0.2,1.8,0.6,3.7,1.1,5.5c0.3,1,0.6,2.1,0.9,3c0.3,1,0.7,2,1.1,3c0.3,0.6,0.6,1.3,0.9,1.9
			s0.5,1.1,0.8,1.7c0.9,1.7,1.8,3.2,2.9,4.7c4.5,6.5,10.8,11.7,18.3,15.1c1.1,0.5,2.3,1,3.5,1.5c0.6,0.2,1.2,0.5,1.8,0.7
			c0.4,0.2,0.8,0.3,1.2,0.5c2.8,1.1,5.8,2.2,8.9,3.3c0.4,0.2,0.8,0.3,1.2,0.4c0.8,0.3,1.6,0.5,2.4,0.8c0.5,0.1,0.9,0.3,1.4,0.5
			c2,0.6,4,1.2,6.1,1.7c1.2,0.3,2.5,0.6,3.7,0.9c0.8,0.2,1.5,0.3,2.2,0.5c0.7,0.1,1.4,0.3,2.2,0.5c4.1,0.9,8.4,1.6,12.8,2.1
			c1,0.1,2,0.2,3.1,0.3c4.1,0.4,8.2,0.6,12.4,0.6c11.2,0,21.9-1.4,31.7-3.6c1.4-0.3,2.8-0.6,4.1-1c0.8-0.2,1.7-0.4,2.4-0.6
			c1.7-0.5,3.3-0.9,4.8-1.4c0.4-0.1,0.8-0.2,1.2-0.3c0.8-0.2,1.5-0.5,2.3-0.7c1.2-0.4,2.4-0.8,3.6-1.2c0.5-0.2,0.9-0.3,1.3-0.5
			c1.4-0.5,2.8-1,4.2-1.5c0.2-0.1,0.5-0.2,0.6-0.3c0.6-0.3,1.3-0.5,1.9-0.8c1.9-0.8,3.7-1.5,5.4-2.3c4.5-2,8.7-4.7,12.2-7.9
			c0.4-0.4,0.8-0.7,1.2-1.1c1.1-1.1,2.2-2.3,3.2-3.5c0.6-0.7,1.2-1.5,1.7-2.3c5.3-7.4,8.3-16.4,8.3-25.9L488.85,215.75z"/>
		<ellipse class="st0" cx="398.15" cy="241.85" rx="26.6" ry="26.6"/>
	</g>
</g>
</svg>
